<svg xmlns="http://www.w3.org/2000/svg" viewBox="0 0 1600 1000" width="1600" height="1000" role="img" aria-label="Window blinds material study" preserveAspectRatio="xMidYMid slice">
    <defs>
  <linearGradient id="window-blinds-wash" x1="0" y1="0" x2="0" y2="1">
    <stop offset="0%" stop-color="#f0e9dc" stop-opacity="1" />
    <stop offset="45%" stop-color="#b6ac9c" stop-opacity="1" />
    <stop offset="100%" stop-color="#5f5648" stop-opacity="1" />
  </linearGradient>
  <radialGradient id="window-blinds-glow" cx="30%" cy="22%" r="78%">
    <stop offset="0%" stop-color="#fffaf0" stop-opacity="0.55" />
    <stop offset="100%" stop-color="#000000" stop-opacity="0" />
  </radialGradient>
  <filter id="window-blinds-grain" x="0" y="0" width="100%" height="100%">
    <feTurbulence type="fractalNoise" baseFrequency="0.8" numOctaves="4" stitchTiles="stitch" />
    <feColorMatrix type="saturate" values="0" />
  </filter>
  <rect width="1600" height="1000" filter="url(#window-blinds-grain)" opacity="0.24" style="mix-blend-mode:soft-light" />
  </defs>
  <rect width="1600" height="1000" fill="url(#window-blinds-wash)" />
  <rect width="1600" height="1000" fill="url(#window-blinds-glow)" />
  <defs>  <linearGradient id="blindsLight" x1="0" y1="0" x2="1" y2="1">
    <stop offset="0%" stop-color="#ffffff" stop-opacity="0.35" />
    <stop offset="60%" stop-color="#ffffff" stop-opacity="0.05" />
    <stop offset="100%" stop-color="#000000" stop-opacity="0.15" />
  </linearGradient></defs>
  <g>
    <rect x="0" y="0" width="1600" height="24" fill="#b6ac9c" opacity="0.95" />
    <rect x="0" y="24" width="1600" height="10" fill="#5f5648" opacity="0.4" />
    <rect x="0" y="0" width="1600" height="3" fill="#f0e9dc" opacity="0.35" />
    <rect x="0" y="34" width="1600" height="24" fill="#9d9280" opacity="0.95" />
    <rect x="0" y="58" width="1600" height="10" fill="#5f5648" opacity="0.4" />
    <rect x="0" y="34" width="1600" height="3" fill="#f0e9dc" opacity="0.35" />
    <rect x="0" y="68" width="1600" height="24" fill="#b6ac9c" opacity="0.95" />
    <rect x="0" y="92" width="1600" height="10" fill="#5f5648" opacity="0.4" />
    <rect x="0" y="68" width="1600" height="3" fill="#f0e9dc" opacity="0.35" />
    <rect x="0" y="102" width="1600" height="24" fill="#9d9280" opacity="0.95" />
    <rect x="0" y="126" width="1600" height="10" fill="#5f5648" opacity="0.4" />
    <rect x="0" y="102" width="1600" height="3" fill="#f0e9dc" opacity="0.35" />
    <rect x="0" y="136" width="1600" height="24" fill="#b6ac9c" opacity="0.95" />
    <rect x="0" y="160" width="1600" height="10" fill="#5f5648" opacity="0.4" />
    <rect x="0" y="136" width="1600" height="3" fill="#f0e9dc" opacity="0.35" />
    <rect x="0" y="170" width="1600" height="24" fill="#9d9280" opacity="0.95" />
    <rect x="0" y="194" width="1600" height="10" fill="#5f5648" opacity="0.4" />
    <rect x="0" y="170" width="1600" height="3" fill="#f0e9dc" opacity="0.35" />
    <rect x="0" y="204" width="1600" height="24" fill="#b6ac9c" opacity="0.95" />
    <rect x="0" y="228" width="1600" height="10" fill="#5f5648" opacity="0.4" />
    <rect x="0" y="204" width="1600" height="3" fill="#f0e9dc" opacity="0.35" />
    <rect x="0" y="238" width="1600" height="24" fill="#9d9280" opacity="0.95" />
    <rect x="0" y="262" width="1600" height="10" fill="#5f5648" opacity="0.4" />
    <rect x="0" y="238" width="1600" height="3" fill="#f0e9dc" opacity="0.35" />
    <rect x="0" y="272" width="1600" height="24" fill="#b6ac9c" opacity="0.95" />
    <rect x="0" y="296" width="1600" height="10" fill="#5f5648" opacity="0.4" />
    <rect x="0" y="272" width="1600" height="3" fill="#f0e9dc" opacity="0.35" />
    <rect x="0" y="306" width="1600" height="24" fill="#9d9280" opacity="0.95" />
    <rect x="0" y="330" width="1600" height="10" fill="#5f5648" opacity="0.4" />
    <rect x="0" y="306" width="1600" height="3" fill="#f0e9dc" opacity="0.35" />
    <rect x="0" y="340" width="1600" height="24" fill="#b6ac9c" opacity="0.95" />
    <rect x="0" y="364" width="1600" height="10" fill="#5f5648" opacity="0.4" />
    <rect x="0" y="340" width="1600" height="3" fill="#f0e9dc" opacity="0.35" />
    <rect x="0" y="374" width="1600" height="24" fill="#9d9280" opacity="0.95" />
    <rect x="0" y="398" width="1600" height="10" fill="#5f5648" opacity="0.4" />
    <rect x="0" y="374" width="1600" height="3" fill="#f0e9dc" opacity="0.35" />
    <rect x="0" y="408" width="1600" height="24" fill="#b6ac9c" opacity="0.95" />
    <rect x="0" y="432" width="1600" height="10" fill="#5f5648" opacity="0.4" />
    <rect x="0" y="408" width="1600" height="3" fill="#f0e9dc" opacity="0.35" />
    <rect x="0" y="442" width="1600" height="24" fill="#9d9280" opacity="0.95" />
    <rect x="0" y="466" width="1600" height="10" fill="#5f5648" opacity="0.4" />
    <rect x="0" y="442" width="1600" height="3" fill="#f0e9dc" opacity="0.35" />
    <rect x="0" y="476" width="1600" height="24" fill="#b6ac9c" opacity="0.95" />
    <rect x="0" y="500" width="1600" height="10" fill="#5f5648" opacity="0.4" />
    <rect x="0" y="476" width="1600" height="3" fill="#f0e9dc" opacity="0.35" />
    <rect x="0" y="510" width="1600" height="24" fill="#9d9280" opacity="0.95" />
    <rect x="0" y="534" width="1600" height="10" fill="#5f5648" opacity="0.4" />
    <rect x="0" y="510" width="1600" height="3" fill="#f0e9dc" opacity="0.35" />
    <rect x="0" y="544" width="1600" height="24" fill="#b6ac9c" opacity="0.95" />
    <rect x="0" y="568" width="1600" height="10" fill="#5f5648" opacity="0.4" />
    <rect x="0" y="544" width="1600" height="3" fill="#f0e9dc" opacity="0.35" />
    <rect x="0" y="578" width="1600" height="24" fill="#9d9280" opacity="0.95" />
    <rect x="0" y="602" width="1600" height="10" fill="#5f5648" opacity="0.4" />
    <rect x="0" y="578" width="1600" height="3" fill="#f0e9dc" opacity="0.35" />
    <rect x="0" y="612" width="1600" height="24" fill="#b6ac9c" opacity="0.95" />
    <rect x="0" y="636" width="1600" height="10" fill="#5f5648" opacity="0.4" />
    <rect x="0" y="612" width="1600" height="3" fill="#f0e9dc" opacity="0.35" />
    <rect x="0" y="646" width="1600" height="24" fill="#9d9280" opacity="0.95" />
    <rect x="0" y="670" width="1600" height="10" fill="#5f5648" opacity="0.4" />
    <rect x="0" y="646" width="1600" height="3" fill="#f0e9dc" opacity="0.35" />
    <rect x="0" y="680" width="1600" height="24" fill="#b6ac9c" opacity="0.95" />
    <rect x="0" y="704" width="1600" height="10" fill="#5f5648" opacity="0.4" />
    <rect x="0" y="680" width="1600" height="3" fill="#f0e9dc" opacity="0.35" />
    <rect x="0" y="714" width="1600" height="24" fill="#9d9280" opacity="0.95" />
    <rect x="0" y="738" width="1600" height="10" fill="#5f5648" opacity="0.4" />
    <rect x="0" y="714" width="1600" height="3" fill="#f0e9dc" opacity="0.35" />
    <rect x="0" y="748" width="1600" height="24" fill="#b6ac9c" opacity="0.95" />
    <rect x="0" y="772" width="1600" height="10" fill="#5f5648" opacity="0.4" />
    <rect x="0" y="748" width="1600" height="3" fill="#f0e9dc" opacity="0.35" />
    <rect x="0" y="782" width="1600" height="24" fill="#9d9280" opacity="0.95" />
    <rect x="0" y="806" width="1600" height="10" fill="#5f5648" opacity="0.4" />
    <rect x="0" y="782" width="1600" height="3" fill="#f0e9dc" opacity="0.35" />
    <rect x="0" y="816" width="1600" height="24" fill="#b6ac9c" opacity="0.95" />
    <rect x="0" y="840" width="1600" height="10" fill="#5f5648" opacity="0.4" />
    <rect x="0" y="816" width="1600" height="3" fill="#f0e9dc" opacity="0.35" />
    <rect x="0" y="850" width="1600" height="24" fill="#9d9280" opacity="0.95" />
    <rect x="0" y="874" width="1600" height="10" fill="#5f5648" opacity="0.4" />
    <rect x="0" y="850" width="1600" height="3" fill="#f0e9dc" opacity="0.35" />
    <rect x="0" y="884" width="1600" height="24" fill="#b6ac9c" opacity="0.95" />
    <rect x="0" y="908" width="1600" height="10" fill="#5f5648" opacity="0.4" />
    <rect x="0" y="884" width="1600" height="3" fill="#f0e9dc" opacity="0.35" />
    <rect x="0" y="918" width="1600" height="24" fill="#9d9280" opacity="0.95" />
    <rect x="0" y="942" width="1600" height="10" fill="#5f5648" opacity="0.4" />
    <rect x="0" y="918" width="1600" height="3" fill="#f0e9dc" opacity="0.35" />
    <rect x="0" y="952" width="1600" height="24" fill="#b6ac9c" opacity="0.95" />
    <rect x="0" y="976" width="1600" height="10" fill="#5f5648" opacity="0.4" />
    <rect x="0" y="952" width="1600" height="3" fill="#f0e9dc" opacity="0.35" />
    <rect x="0" y="986" width="1600" height="24" fill="#9d9280" opacity="0.95" />
    <rect x="0" y="1010" width="1600" height="10" fill="#5f5648" opacity="0.4" />
    <rect x="0" y="986" width="1600" height="3" fill="#f0e9dc" opacity="0.35" />
  </g>
  <rect width="1600" height="1000" fill="url(#blindsLight)" />
</svg>
